<?xml version="1.0" ?><svg id="Layer_1" style="enable-background:new 0 0 65 65;" version="1.1" viewBox="0 0 65 65" xml:space="preserve" xmlns="http://www.w3.org/2000/svg" xmlns:xlink="http://www.w3.org/1999/xlink"><style type="text/css">
	.st0{fill:#FFF;}
</style><g><g><path class="st0" d="M63.5,54.9h-62c-0.4,0-0.8,0.3-0.8,0.8s0.3,0.8,0.8,0.8h62c0.4,0,0.8-0.3,0.8-0.8S63.9,54.9,63.5,54.9z"/><path class="st0" d="M54.5,58.9h-44c-0.4,0-0.8,0.3-0.8,0.8s0.3,0.8,0.8,0.8h44c0.4,0,0.8-0.3,0.8-0.8S54.9,58.9,54.5,58.9z"/><path class="st0" d="M46.5,62.9h-6c-0.4,0-0.8,0.3-0.8,0.8s0.3,0.8,0.8,0.8h6c0.4,0,0.8-0.3,0.8-0.8S46.9,62.9,46.5,62.9z"/><path class="st0" d="M36.5,62.9h-18c-0.4,0-0.8,0.3-0.8,0.8s0.3,0.8,0.8,0.8h18c0.4,0,0.8-0.3,0.8-0.8S36.9,62.9,36.5,62.9z"/><path class="st0" d="M3.5,48.6C3.5,48.6,3.5,48.6,3.5,48.6C3.5,48.6,3.5,48.6,3.5,48.6c-0.4,0.9-1.1,1.6-2,2c0,0,0,0,0,0    c0,0,0,0,0,0c0.9,0.4,1.6,1.1,2,2c0,0,0,0,0,0c0,0,0,0,0,0c0.4-0.9,1.1-1.6,2-2c0,0,0,0,0,0c0,0,0,0,0,0    C4.6,50.2,3.9,49.5,3.5,48.6z"/><path class="st0" d="M3.5,6.6C3.5,6.6,3.5,6.6,3.5,6.6C3.5,6.6,3.5,6.6,3.5,6.6c0.7-1.3,1.7-2.3,3-3c0,0,0,0,0,0c0,0,0,0,0,0    c-1.3-0.6-2.3-1.7-3-3c0,0,0,0,0,0c0,0,0,0,0,0c-0.6,1.3-1.7,2.3-3,3c0,0,0,0,0,0c0,0,0,0,0,0C1.8,4.3,2.9,5.3,3.5,6.6z"/><path class="st0" d="M57.5,42.6C57.5,42.6,57.5,42.6,57.5,42.6c-0.4,0.9-1.1,1.6-2,2c0,0,0,0,0,0c0,0,0,0,0,0c0.9,0.4,1.6,1.1,2,2    c0,0,0,0,0,0c0,0,0,0,0,0c0.4-0.9,1.1-1.6,2-2c0,0,0,0,0,0c0,0,0,0,0,0C58.6,44.2,57.9,43.5,57.5,42.6    C57.5,42.6,57.5,42.6,57.5,42.6z"/><path class="st0" d="M50.5,4.6C50.5,4.6,50.5,4.6,50.5,4.6C50.5,4.6,50.5,4.6,50.5,4.6c0.2-0.4,0.6-0.8,1-1c0,0,0,0,0,0    c0,0,0,0,0,0c-0.4-0.2-0.8-0.6-1-1c0,0,0,0,0,0c0,0,0,0,0,0c-0.2,0.4-0.6,0.8-1,1c0,0,0,0,0,0c0,0,0,0,0,0    C49.9,3.8,50.3,4.2,50.5,4.6z"/><path class="st0" d="M64.5,16.6c-1.3-0.6-2.3-1.7-3-3c0,0,0,0,0,0c0,0,0,0,0,0c-0.6,1.3-1.7,2.3-3,3c0,0,0,0,0,0c0,0,0,0,0,0    c1.3,0.6,2.3,1.7,3,3c0,0,0,0,0,0c0,0,0,0,0,0C62.1,18.3,63.2,17.3,64.5,16.6C64.5,16.6,64.5,16.6,64.5,16.6    C64.5,16.6,64.5,16.6,64.5,16.6z"/><path class="st0" d="M9.3,43C9.3,43,9.3,43,9.3,43c0,0.1,0.1,0.1,0.1,0.1c0.6,1,1.2,2,2,3c0.1,0.2,0.4,0.3,0.6,0.3H53    c0.2,0,0.5-0.1,0.6-0.3c3.7-4.7,5.6-10.4,5.6-16.4c0-14.8-12-26.8-26.8-26.8S5.7,14.9,5.7,29.7C5.7,34.4,7,38.9,9.3,43z M9.5,24.9    l-1.7-0.3c0.5-2.4,1.4-4.7,2.5-6.9l1.5,0.9c0.1,0.1,0.2,0.1,0.4,0.1c0.3,0,0.5-0.1,0.7-0.4c0.2-0.4,0.1-0.8-0.3-1L11,16.4    c1.3-2.1,2.9-4,4.7-5.6l1.1,1.3c0.1,0.2,0.4,0.3,0.6,0.3c0.2,0,0.3-0.1,0.5-0.2c0.3-0.3,0.4-0.7,0.1-1.1l-1.1-1.3    c1.9-1.5,4-2.7,6.3-3.7l0.6,1.6c0.1,0.3,0.4,0.5,0.7,0.5c0.1,0,0.2,0,0.3,0c0.4-0.1,0.6-0.6,0.4-1l-0.6-1.6    c2.3-0.8,4.7-1.2,7.2-1.3v1.7c0,0.4,0.3,0.8,0.8,0.8s0.8-0.3,0.8-0.8V4.4c2.5,0.1,4.9,0.5,7.2,1.3l-0.6,1.6    c-0.1,0.4,0.1,0.8,0.4,1c0.1,0,0.2,0,0.3,0c0.3,0,0.6-0.2,0.7-0.5l0.6-1.6c2.3,0.9,4.4,2.1,6.3,3.7L47,11.2    c-0.3,0.3-0.2,0.8,0.1,1.1c0.1,0.1,0.3,0.2,0.5,0.2c0.2,0,0.4-0.1,0.6-0.3l1.1-1.3c1.8,1.6,3.4,3.5,4.7,5.6l-1.5,0.9    c-0.4,0.2-0.5,0.7-0.3,1c0.1,0.2,0.4,0.4,0.7,0.4c0.1,0,0.3,0,0.4-0.1l1.5-0.9c1.1,2.1,2,4.4,2.5,6.9l-1.7,0.3    c-0.4,0.1-0.7,0.5-0.6,0.9c0.1,0.4,0.4,0.6,0.7,0.6c0,0,0.1,0,0.1,0l1.7-0.3c0.2,1.2,0.3,2.4,0.3,3.6c0,1.2-0.1,2.4-0.3,3.6    L55.8,33c-0.4-0.1-0.8,0.2-0.9,0.6c-0.1,0.4,0.2,0.8,0.6,0.9l1.7,0.3c-0.5,2.4-1.3,4.7-2.5,6.9l-1.5-0.9c-0.4-0.2-0.8-0.1-1,0.3    c-0.2,0.4-0.1,0.8,0.3,1L54,43c-0.4,0.7-0.8,1.3-1.3,1.9H12.3c-0.5-0.6-0.9-1.3-1.3-1.9l1.5-0.9c0.4-0.2,0.5-0.7,0.3-1    c-0.2-0.4-0.7-0.5-1-0.3l-1.5,0.9c-1.2-2.2-2-4.5-2.5-6.9l1.7-0.3c0.4-0.1,0.7-0.5,0.6-0.9C10,33.2,9.6,32.9,9.2,33l-1.7,0.3    c-0.2-1.2-0.3-2.4-0.3-3.6c0-1.2,0.1-2.5,0.3-3.6l1.7,0.3c0,0,0.1,0,0.1,0c0.4,0,0.7-0.3,0.7-0.6C10.2,25.3,9.9,24.9,9.5,24.9z"/><path class="st0" d="M32.5,26.4c-2.3,0-4.1,1.8-4.1,4.1c0,2.3,1.8,4.1,4.1,4.1s4.1-1.8,4.1-4.1c0-0.2,0-0.4-0.1-0.7    c4.3-4.4,12.8-13.3,12.8-13.3c0.3-0.3,0.3-0.7,0-1c-0.3-0.3-0.7-0.3-1-0.1c0,0-9.8,7.4-14.7,11.2C33.3,26.5,32.9,26.4,32.5,26.4z     M41.7,22.3c-2,2.1-4.1,4.3-5.8,6c-0.1-0.1-0.2-0.3-0.3-0.4c0-0.1-0.1-0.1-0.1-0.2c-0.1-0.1-0.2-0.2-0.3-0.3c0,0-0.1-0.1-0.1-0.1    C37,25.9,39.4,24.1,41.7,22.3z M34,28.4c0.2,0.1,0.3,0.2,0.4,0.4c0,0,0,0,0,0c0.3,0.3,0.5,0.6,0.6,1c0,0,0,0,0,0    c0.1,0.2,0.1,0.4,0.1,0.7c0,1.4-1.2,2.6-2.6,2.6s-2.6-1.2-2.6-2.6c0-1.4,1.2-2.6,2.6-2.6c0.3,0,0.7,0.1,1,0.2    C33.7,28.2,33.8,28.3,34,28.4C34,28.4,34,28.4,34,28.4z"/><path class="st0" d="M14.1,32.1C14.1,32.1,14.1,32.1,14.1,32.1c0.4,0,0.7-0.3,0.7-0.7c0.3-4.4,2.3-8.5,5.5-11.3    c3.1-2.8,7.2-4.2,11.3-3.9c2.8,0.2,5.6,1.2,7.9,2.9c0.3,0.2,0.8,0.2,1-0.2c0.2-0.3,0.2-0.8-0.2-1c-2.5-1.9-5.5-3-8.7-3.2    c-4.5-0.3-9,1.2-12.4,4.3c-0.4,0.3-0.7,0.7-1.1,1c0.3-0.4,0.6-0.8,1-1.2c3.1-3.6,7.7-5.7,12.5-6c4.1-0.2,8.2,0.9,11.7,3.3    c0.3,0.2,0.8,0.1,1-0.2c0.2-0.3,0.1-0.8-0.2-1c-3.7-2.6-8.2-3.9-12.7-3.6c-5.2,0.3-10.2,2.6-13.6,6.5c-3.3,3.7-5.1,8.7-4.8,13.6    C13.3,31.8,13.7,32.1,14.1,32.1z"/><path class="st0" d="M48.6,20.1c-0.3,0.2-0.4,0.7-0.2,1c2,2.9,3.2,6.1,3.5,9.5h-5.1c0-2-0.3-4.1-1.1-6c-0.2-0.4-0.6-0.6-1-0.4    c-0.4,0.2-0.6,0.6-0.4,1c0.8,2,1.1,4.1,1,6.1c0,0.2,0.1,0.4,0.2,0.6c0.1,0.2,0.3,0.2,0.6,0.2h6.7c0.2,0,0.4-0.1,0.5-0.2    s0.2-0.3,0.2-0.6c-0.2-4-1.5-7.8-3.8-11.1C49.4,19.9,48.9,19.8,48.6,20.1z"/></g></g></svg>