<?xml version="1.0" ?><svg id="Layer_1" style="enable-background:new 0 0 65 65;" version="1.1" viewBox="0 0 65 65" xml:space="preserve" xmlns="http://www.w3.org/2000/svg" xmlns:xlink="http://www.w3.org/1999/xlink"><style type="text/css">
	.st0{fill:#FFF;}
</style><g><g><path class="st0" d="M63.5,54.9h-21c5.1-1.7,8.4-4.6,8.4-8.1c0-3.9-4.2-7.2-10.9-8.7c-0.4-0.1-0.8,0.2-0.9,0.6    c-0.1,0.4,0.2,0.8,0.6,0.9c5.9,1.4,9.7,4.2,9.7,7.3c0,4.4-7.7,8.1-16.9,8.1s-16.9-3.7-16.9-8.1c0-3.1,3.8-5.9,9.7-7.3    c0.4-0.1,0.7-0.5,0.6-0.9c-0.1-0.4-0.5-0.7-0.9-0.6c-6.7,1.5-10.9,4.9-10.9,8.7c0,3.4,3.3,6.4,8.4,8.1h-21c-0.4,0-0.8,0.3-0.8,0.8    s0.3,0.8,0.8,0.8h62c0.4,0,0.8-0.3,0.8-0.8S63.9,54.9,63.5,54.9z"/><path class="st0" d="M54.5,58.9h-44c-0.4,0-0.8,0.3-0.8,0.8s0.3,0.8,0.8,0.8h44c0.4,0,0.8-0.3,0.8-0.8S54.9,58.9,54.5,58.9z"/><path class="st0" d="M46.5,62.9h-6c-0.4,0-0.8,0.3-0.8,0.8s0.3,0.8,0.8,0.8h6c0.4,0,0.8-0.3,0.8-0.8S46.9,62.9,46.5,62.9z"/><path class="st0" d="M36.5,62.9h-18c-0.4,0-0.8,0.3-0.8,0.8s0.3,0.8,0.8,0.8h18c0.4,0,0.8-0.3,0.8-0.8S36.9,62.9,36.5,62.9z"/><path class="st0" d="M3.5,48.6C3.5,48.6,3.5,48.6,3.5,48.6C3.5,48.6,3.5,48.6,3.5,48.6c-0.4,0.9-1.1,1.6-2,2c0,0,0,0,0,0    c0,0,0,0,0,0c0.9,0.4,1.6,1.1,2,2c0,0,0,0,0,0c0,0,0,0,0,0c0.4-0.9,1.1-1.6,2-2c0,0,0,0,0,0c0,0,0,0,0,0    C4.6,50.2,3.9,49.5,3.5,48.6z"/><path class="st0" d="M3.5,6.6C3.5,6.6,3.5,6.6,3.5,6.6C3.5,6.6,3.5,6.6,3.5,6.6c0.7-1.3,1.7-2.3,3-3c0,0,0,0,0,0c0,0,0,0,0,0    c-1.3-0.6-2.3-1.7-3-3c0,0,0,0,0,0c0,0,0,0,0,0c-0.6,1.3-1.7,2.3-3,3c0,0,0,0,0,0c0,0,0,0,0,0C1.8,4.3,2.9,5.3,3.5,6.6z"/><path class="st0" d="M57.5,46.6C57.5,46.6,57.5,46.6,57.5,46.6C57.5,46.6,57.5,46.6,57.5,46.6c0.4-0.9,1.1-1.6,2-2c0,0,0,0,0,0    c0,0,0,0,0,0c-0.9-0.4-1.6-1.1-2-2c0,0,0,0,0,0c0,0,0,0,0,0c-0.4,0.9-1.1,1.6-2,2c0,0,0,0,0,0c0,0,0,0,0,0    C56.4,45.1,57.1,45.7,57.5,46.6z"/><path class="st0" d="M50.5,4.6C50.5,4.6,50.5,4.6,50.5,4.6C50.5,4.6,50.5,4.6,50.5,4.6c0.2-0.4,0.6-0.8,1-1c0,0,0,0,0,0    c0,0,0,0,0,0c-0.4-0.2-0.8-0.6-1-1c0,0,0,0,0,0c0,0,0,0,0,0c-0.2,0.4-0.6,0.8-1,1c0,0,0,0,0,0c0,0,0,0,0,0    C49.9,3.8,50.3,4.2,50.5,4.6z"/><path class="st0" d="M64.5,16.6c-1.3-0.6-2.3-1.7-3-3c0,0,0,0,0,0c0,0,0,0,0,0c-0.6,1.3-1.7,2.3-3,3c0,0,0,0,0,0c0,0,0,0,0,0    c1.3,0.6,2.3,1.7,3,3c0,0,0,0,0,0c0,0,0,0,0,0C62.1,18.3,63.2,17.3,64.5,16.6C64.5,16.6,64.5,16.6,64.5,16.6    C64.5,16.6,64.5,16.6,64.5,16.6z"/><path class="st0" d="M33.3,47.2V34.9c0-0.4-0.3-0.8-0.8-0.8s-0.8,0.3-0.8,0.8v12.3c0,0.4,0.3,0.8,0.8,0.8S33.3,47.7,33.3,47.2z"/><path class="st0" d="M26.6,33h1.2v14.2c0,0.4,0.3,0.8,0.8,0.8s0.8-0.3,0.8-0.8V32.4c0,0,0-0.1,0-0.1s0-0.1,0-0.1v-2.9    c0-0.4-0.3-0.8-0.8-0.8s-0.8,0.3-0.8,0.8v2.2h-1.2c-0.7,0-1.2-0.5-1.2-1.2v-8.9c0-3.9,3.2-7.2,7.2-7.2s7.2,3.2,7.2,7.2v8.9    c0,0.7-0.5,1.2-1.2,1.2h-1.2v-2.2c0-0.4-0.3-0.8-0.8-0.8s-0.8,0.3-0.8,0.8v17.9c0,0.4,0.3,0.8,0.8,0.8s0.8-0.3,0.8-0.8V33h1.2    c1.5,0,2.7-1.2,2.7-2.7v-8.9c0-3.7-2.3-6.8-5.6-8.1c1.6-1,2.6-2.8,2.6-4.8c0-3.1-2.6-5.7-5.7-5.7c-3.1,0-5.7,2.6-5.7,5.7    c0,2,1,3.8,2.6,4.8c-3.2,1.2-5.6,4.4-5.6,8.1v8.9C23.8,31.8,25.1,33,26.6,33z M28.3,8.6c0-2.3,1.9-4.2,4.2-4.2    c2.3,0,4.2,1.9,4.2,4.2c0,2.3-1.9,4.2-4.2,4.2C30.2,12.8,28.3,10.9,28.3,8.6z"/><path class="st0" d="M44.5,36.9C44.5,36.9,44.5,36.9,44.5,36.9c0.5,0,0.8-0.4,0.7-0.8l-0.1-1.8l3.9,3.9c0.1,0.1,0.3,0.2,0.5,0.2    s0.4-0.1,0.5-0.2c0.3-0.3,0.3-0.8,0-1.1l-3.9-3.9l1.8,0.1c0.4,0,0.8-0.3,0.8-0.7s-0.3-0.8-0.7-0.8l-3.9-0.3    c-0.2,0-0.4,0.1-0.6,0.2s-0.2,0.4-0.2,0.6l0.3,3.9C43.7,36.6,44.1,36.9,44.5,36.9z"/><path class="st0" d="M15.5,38.4c0.2,0,0.4-0.1,0.5-0.2l3.9-3.9l-0.1,1.8c0,0.4,0.3,0.8,0.7,0.8c0,0,0,0,0.1,0    c0.4,0,0.7-0.3,0.7-0.7l0.3-3.9c0-0.2-0.1-0.4-0.2-0.6c-0.2-0.2-0.4-0.2-0.6-0.2l-3.9,0.3c-0.4,0-0.7,0.4-0.7,0.8    c0,0.4,0.4,0.7,0.8,0.7l1.8-0.1L15,37.1c-0.3,0.3-0.3,0.8,0,1.1C15.1,38.3,15.3,38.4,15.5,38.4z"/><path class="st0" d="M18.9,10.4L17,10.3c-0.4,0-0.8,0.3-0.8,0.7c0,0.4,0.3,0.8,0.7,0.8l3.9,0.3c0,0,0,0,0.1,0    c0.2,0,0.4-0.1,0.5-0.2c0.2-0.2,0.2-0.4,0.2-0.6l-0.3-3.9c0-0.4-0.4-0.7-0.8-0.7c-0.4,0-0.7,0.4-0.7,0.8l0.1,1.8L16,5.5    c-0.3-0.3-0.8-0.3-1.1,0s-0.3,0.8,0,1.1L18.9,10.4z"/><path class="st0" d="M44.2,12.1C44.2,12.1,44.2,12.1,44.2,12.1l3.9-0.3c0.4,0,0.7-0.4,0.7-0.8c0-0.4-0.4-0.7-0.8-0.7l-1.8,0.1    L50,6.5c0.3-0.3,0.3-0.8,0-1.1s-0.8-0.3-1.1,0l-3.9,3.9l0.1-1.8c0-0.4-0.3-0.8-0.7-0.8c-0.4,0-0.8,0.3-0.8,0.7l-0.3,3.9    c0,0.2,0.1,0.4,0.2,0.6C43.8,12,44,12.1,44.2,12.1z"/><path class="st0" d="M25.5,43.7c0.4-0.2,0.6-0.6,0.4-1c-0.2-0.4-0.6-0.6-1-0.4c-2.8,1.1-4.3,2.7-4.3,4.5c0,3.3,5.2,5.8,11.9,5.8    s11.9-2.6,11.9-5.8c0-1.8-1.5-3.4-4.3-4.5c-0.4-0.2-0.8,0-1,0.4c-0.2,0.4,0,0.8,0.4,1c2.1,0.8,3.3,2,3.3,3.1    c0,2.1-4.3,4.3-10.4,4.3s-10.4-2.3-10.4-4.3C22.1,45.7,23.4,44.5,25.5,43.7z"/></g></g></svg>