<?xml version="1.0" ?><svg id="Layer_1" style="enable-background:new 0 0 65 65;" version="1.1" viewBox="0 0 65 65" xml:space="preserve" xmlns="http://www.w3.org/2000/svg" xmlns:xlink="http://www.w3.org/1999/xlink"><style type="text/css">
	.st0{fill:#FFF;}
</style><g><g><path class="st0" d="M63.5,54.9h-37l0.9-3.6c0.5-0.2,1.1-0.4,1.6-0.7l4,2.4c0.3,0.2,0.7,0.1,0.9-0.1l3.7-3.7    c0.2-0.2,0.3-0.6,0.1-0.9l-2.4-4c0.3-0.5,0.5-1.1,0.7-1.6l4.5-1.1c0.3-0.1,0.6-0.4,0.6-0.7v-5.2c0-0.3-0.2-0.6-0.6-0.7L36,33.8    c-0.2-0.5-0.4-1.1-0.7-1.6l2.4-4c0.2-0.3,0.1-0.7-0.1-0.9l-3.7-3.7c-0.2-0.2-0.6-0.3-0.9-0.1l-4,2.4c-0.5-0.3-1.1-0.5-1.6-0.7    l-1.1-4.5c-0.1-0.3-0.4-0.6-0.7-0.6h-5.2c-0.3,0-0.6,0.2-0.7,0.6l-1.1,4.5c-0.5,0.2-1.1,0.4-1.6,0.7l-4-2.4    c-0.3-0.2-0.7-0.1-0.9,0.1l-3.7,3.7C8,27.5,8,27.9,8.1,28.2l2.4,4c-0.3,0.5-0.5,1.1-0.7,1.6l-4.5,1.1C5,35,4.8,35.3,4.8,35.6v5.2    c0,0.3,0.2,0.6,0.6,0.7l4.5,1.1c0.2,0.5,0.4,1.1,0.7,1.6l-2.4,4C8,48.6,8,49,8.3,49.2l3.7,3.7c0.2,0.2,0.6,0.3,0.9,0.1l4-2.4    c0.5,0.3,1.1,0.5,1.6,0.7l0.9,3.6H1.5c-0.4,0-0.8,0.3-0.8,0.8s0.3,0.8,0.8,0.8h18.8h5.2h38c0.4,0,0.8-0.3,0.8-0.8    S63.9,54.9,63.5,54.9z M20.9,54.9l-1.1-4.4c-0.1-0.3-0.3-0.5-0.5-0.5c-0.7-0.2-1.4-0.5-2.1-0.9c-0.2-0.1-0.5-0.1-0.7,0l-3.9,2.3    l-2.9-2.9l2.3-3.9c0.1-0.2,0.1-0.5,0-0.7c-0.4-0.7-0.7-1.4-0.9-2.1c-0.1-0.3-0.3-0.4-0.5-0.5l-4.4-1.1v-4l4.4-1.1    c0.3-0.1,0.5-0.3,0.5-0.5c0.2-0.7,0.5-1.4,0.9-2.1c0.1-0.2,0.1-0.5,0-0.7l-2.3-3.9l2.9-2.9l3.9,2.3c0.2,0.1,0.5,0.1,0.7,0    c0.7-0.4,1.4-0.7,2.1-0.9c0.3-0.1,0.4-0.3,0.5-0.5l1.1-4.4h4L26,26c0.1,0.3,0.3,0.5,0.5,0.5c0.7,0.2,1.4,0.5,2.1,0.9    c0.2,0.1,0.5,0.1,0.7,0l3.9-2.3l2.9,2.9l-2.3,3.9c-0.1,0.2-0.1,0.5,0,0.7c0.4,0.7,0.7,1.4,0.9,2.1c0.1,0.3,0.3,0.4,0.5,0.5    l4.4,1.1v4l-4.4,1.1c-0.3,0.1-0.5,0.3-0.5,0.5c-0.2,0.7-0.5,1.4-0.9,2.1c-0.1,0.2-0.1,0.5,0,0.7l2.3,3.9l-2.9,2.9l-3.9-2.3    c-0.2-0.1-0.5-0.1-0.7,0c-0.7,0.4-1.4,0.7-2.1,0.9c-0.3,0.1-0.4,0.3-0.5,0.5l-1.1,4.4H20.9z"/><path class="st0" d="M54.5,58.9h-44c-0.4,0-0.8,0.3-0.8,0.8s0.3,0.8,0.8,0.8h44c0.4,0,0.8-0.3,0.8-0.8S54.9,58.9,54.5,58.9z"/><path class="st0" d="M46.5,62.9h-6c-0.4,0-0.8,0.3-0.8,0.8s0.3,0.8,0.8,0.8h6c0.4,0,0.8-0.3,0.8-0.8S46.9,62.9,46.5,62.9z"/><path class="st0" d="M36.5,62.9h-18c-0.4,0-0.8,0.3-0.8,0.8s0.3,0.8,0.8,0.8h18c0.4,0,0.8-0.3,0.8-0.8S36.9,62.9,36.5,62.9z"/><path class="st0" d="M3.5,48.6C3.5,48.6,3.5,48.6,3.5,48.6c-0.4,0.9-1.1,1.6-2,2c0,0,0,0,0,0c0,0,0,0,0,0c0.9,0.4,1.6,1.1,2,2    c0,0,0,0,0,0c0,0,0,0,0,0c0.4-0.9,1.1-1.6,2-2c0,0,0,0,0,0c0,0,0,0,0,0C4.6,50.2,3.9,49.5,3.5,48.6C3.5,48.6,3.5,48.6,3.5,48.6z"/><path class="st0" d="M3.5,6.6C3.5,6.6,3.5,6.6,3.5,6.6C3.5,6.6,3.5,6.6,3.5,6.6c0.7-1.3,1.7-2.3,3-3c0,0,0,0,0,0c0,0,0,0,0,0    c-1.3-0.6-2.3-1.7-3-3c0,0,0,0,0,0c0,0,0,0,0,0c-0.6,1.3-1.7,2.3-3,3c0,0,0,0,0,0c0,0,0,0,0,0C1.8,4.3,2.9,5.3,3.5,6.6z"/><path class="st0" d="M57.5,42.6C57.5,42.6,57.5,42.6,57.5,42.6C57.5,42.6,57.5,42.6,57.5,42.6c-0.4,0.9-1.1,1.6-2,2c0,0,0,0,0,0    c0,0,0,0,0,0c0.9,0.4,1.6,1.1,2,2c0,0,0,0,0,0c0,0,0,0,0,0c0.4-0.9,1.1-1.6,2-2c0,0,0,0,0,0c0,0,0,0,0,0    C58.6,44.2,57.9,43.5,57.5,42.6z"/><path class="st0" d="M50.5,4.6C50.5,4.6,50.5,4.6,50.5,4.6C50.5,4.6,50.5,4.6,50.5,4.6c0.2-0.4,0.6-0.8,1-1c0,0,0,0,0,0    c0,0,0,0,0,0c-0.4-0.2-0.8-0.6-1-1c0,0,0,0,0,0c0,0,0,0,0,0c-0.2,0.4-0.6,0.8-1,1c0,0,0,0,0,0c0,0,0,0,0,0    C49.9,3.8,50.3,4.2,50.5,4.6z"/><path class="st0" d="M64.5,16.6c-1.3-0.6-2.3-1.7-3-3c0,0,0,0,0,0c0,0,0,0,0,0c-0.6,1.3-1.7,2.3-3,3c0,0,0,0,0,0c0,0,0,0,0,0    c1.3,0.6,2.3,1.7,3,3c0,0,0,0,0,0c0,0,0,0,0,0C62.1,18.3,63.2,17.3,64.5,16.6C64.5,16.6,64.5,16.6,64.5,16.6    C64.5,16.6,64.5,16.6,64.5,16.6z"/><path class="st0" d="M43.3,21.8c-0.4-0.2-0.8-0.1-1,0.3l-1.7,3c-0.1,0.2-0.1,0.4-0.1,0.6c0.1,0.2,0.2,0.4,0.3,0.5l1.2,0.7    c-0.1,0.6-0.2,1.3-0.2,1.9s0.1,1.3,0.2,1.9l-1.2,0.7c-0.2,0.1-0.3,0.3-0.3,0.5c-0.1,0.2,0,0.4,0.1,0.6l1.7,3    c0.2,0.4,0.7,0.5,1,0.3l1.2-0.7c1,0.9,2.1,1.6,3.4,1.9v1.4c0,0.4,0.3,0.8,0.8,0.8h3.5c0.4,0,0.8-0.3,0.8-0.8v-1.4    c1.3-0.4,2.4-1,3.4-1.9l1.2,0.7c0.4,0.2,0.8,0.1,1-0.3l1.7-3c0.1-0.2,0.1-0.4,0.1-0.6c-0.1-0.2-0.2-0.4-0.3-0.5l-1.2-0.7    c0.1-0.6,0.2-1.3,0.2-1.9s-0.1-1.3-0.2-1.9l1.2-0.7c0.2-0.1,0.3-0.3,0.3-0.5c0.1-0.2,0-0.4-0.1-0.6l-1.7-3c-0.2-0.4-0.7-0.5-1-0.3    l-1.2,0.7c-1-0.9-2.1-1.6-3.4-1.9v-1.4c0-0.4-0.3-0.8-0.8-0.8h-3.5c-0.4,0-0.8,0.3-0.8,0.8v1.4c-1.3,0.4-2.4,1-3.4,1.9L43.3,21.8z     M45.1,23.9c1-1,2.2-1.8,3.6-2.1c0.3-0.1,0.6-0.4,0.6-0.7v-1.2h2v1.2c0,0.4,0.2,0.7,0.6,0.7c1.4,0.3,2.6,1,3.6,2.1    c0.2,0.3,0.6,0.3,0.9,0.1l1-0.6l1,1.7l-1,0.6c-0.3,0.2-0.4,0.5-0.3,0.9c0.2,0.7,0.3,1.4,0.3,2.1s-0.1,1.4-0.3,2.1    c-0.1,0.3,0,0.7,0.3,0.9l1,0.6l-1,1.7l-1-0.6c-0.3-0.2-0.7-0.1-0.9,0.1c-1,1-2.2,1.8-3.6,2.1c-0.3,0.1-0.6,0.4-0.6,0.7v1.2h-2    v-1.2c0-0.4-0.2-0.7-0.6-0.7c-1.4-0.3-2.6-1-3.6-2.1c-0.2-0.3-0.6-0.3-0.9-0.1l-1,0.6l-1-1.7l1-0.6c0.3-0.2,0.4-0.5,0.3-0.9    c-0.2-0.7-0.3-1.4-0.3-2.1s0.1-1.4,0.3-2.1c0.1-0.3,0-0.7-0.3-0.9l-1-0.6l1-1.7l1,0.6C44.5,24.2,44.9,24.1,45.1,23.9z"/><path class="st0" d="M50.3,32.9c2.3,0,4.2-1.9,4.2-4.2s-1.9-4.2-4.2-4.2s-4.2,1.9-4.2,4.2S48,32.9,50.3,32.9z M50.3,26    c1.5,0,2.7,1.2,2.7,2.7s-1.2,2.7-2.7,2.7s-2.7-1.2-2.7-2.7S48.8,26,50.3,26z"/><path class="st0" d="M36.8,16.4c2.3,0,4.2-1.9,4.2-4.2s-1.9-4.2-4.2-4.2s-4.2,1.9-4.2,4.2S34.5,16.4,36.8,16.4z M36.8,9.4    c1.5,0,2.7,1.2,2.7,2.7s-1.2,2.7-2.7,2.7s-2.7-1.2-2.7-2.7S35.3,9.4,36.8,9.4z"/><path class="st0" d="M28.1,14.7h1.4c0.1,0.3,0.2,0.6,0.4,0.9l-1,1c-0.1,0.1-0.2,0.3-0.2,0.5s0.1,0.4,0.2,0.5l2.5,2.5    c0.3,0.3,0.8,0.3,1.1,0l1-1c0.3,0.1,0.6,0.3,0.9,0.4v1.4c0,0.4,0.3,0.8,0.8,0.8h3.5c0.4,0,0.8-0.3,0.8-0.8v-1.4    c0.3-0.1,0.6-0.2,0.9-0.4l1,1c0.3,0.3,0.8,0.3,1.1,0l2.5-2.5c0.1-0.1,0.2-0.3,0.2-0.5s-0.1-0.4-0.2-0.5l-1-1    c0.1-0.3,0.3-0.6,0.4-0.9h1.4c0.4,0,0.8-0.3,0.8-0.8v-3.5c0-0.4-0.3-0.8-0.8-0.8h-1.4c-0.1-0.3-0.2-0.6-0.4-0.9l1-1    C45,7.5,45,7,44.7,6.7l-2.5-2.5C42,4,41.5,4,41.2,4.3l-1,1c-0.3-0.1-0.6-0.3-0.9-0.4V3.5c0-0.4-0.3-0.8-0.8-0.8h-3.5    c-0.4,0-0.8,0.3-0.8,0.8v1.4C34,5,33.7,5.1,33.4,5.3l-1-1c-0.3-0.3-0.8-0.3-1.1,0l-2.5,2.5c-0.3,0.3-0.3,0.8,0,1.1l1,1    c-0.1,0.3-0.3,0.6-0.4,0.9h-1.4c-0.4,0-0.8,0.3-0.8,0.8v3.5C27.4,14.3,27.7,14.7,28.1,14.7z M28.9,11.2h1.2c0.3,0,0.6-0.2,0.7-0.6    c0.1-0.6,0.4-1.1,0.7-1.6c0.2-0.3,0.1-0.7-0.1-0.9l-0.9-0.9l1.4-1.4l0.9,0.9C33,7,33.4,7,33.7,6.8c0.5-0.3,1-0.5,1.6-0.7    c0.3-0.1,0.6-0.4,0.6-0.7V4.2h2v1.2c0,0.3,0.2,0.6,0.6,0.7c0.6,0.1,1.1,0.4,1.6,0.7C40.3,7,40.6,7,40.9,6.7l0.9-0.9l1.4,1.4    l-0.9,0.9C42,8.4,42,8.7,42.2,9c0.3,0.5,0.5,1,0.7,1.6c0.1,0.3,0.4,0.6,0.7,0.6h1.2v2h-1.2c-0.3,0-0.6,0.2-0.7,0.6    c-0.1,0.6-0.4,1.1-0.7,1.6C42,15.6,42,16,42.3,16.2l0.9,0.9l-1.4,1.4l-0.9-0.9c-0.2-0.2-0.6-0.3-0.9-0.1c-0.5,0.3-1,0.5-1.6,0.7    c-0.3,0.1-0.6,0.4-0.6,0.7v1.2h-2v-1.2c0-0.3-0.2-0.6-0.6-0.7c-0.6-0.1-1.1-0.4-1.6-0.7c-0.3-0.2-0.7-0.1-0.9,0.1l-0.9,0.9    l-1.4-1.4l0.9-0.9c0.2-0.2,0.3-0.6,0.1-0.9c-0.3-0.5-0.5-1-0.7-1.6c-0.1-0.3-0.4-0.6-0.7-0.6h-1.2V11.2z"/><path class="st0" d="M32.4,38.2c0-5.2-4.2-9.4-9.4-9.4s-9.4,4.2-9.4,9.4s4.2,9.4,9.4,9.4S32.4,43.4,32.4,38.2z M26.5,45.3    c-1.1,0.6-2.3,0.9-3.6,0.9s-2.5-0.3-3.6-0.9V44c0-0.7,0.3-1.3,0.7-1.4l0.2-0.1c1.8-1,3.8-1,5.5,0l0.2,0.1c0.3,0.1,0.6,0.7,0.6,1.4    V45.3z M20.4,37.7c0-1.4,1.1-2.5,2.5-2.5s2.5,1.1,2.5,2.5s-1.1,2.5-2.5,2.5S20.4,39.1,20.4,37.7z M28,44.3V44    c0-1.3-0.6-2.3-1.4-2.7l-0.2-0.1c-0.3-0.2-0.6-0.3-0.9-0.4c0.9-0.7,1.4-1.8,1.4-3c0-2.2-1.8-4-4-4s-4,1.8-4,4c0,1.2,0.6,2.3,1.4,3    c-0.3,0.1-0.6,0.3-0.9,0.4l-0.1,0.1c-0.9,0.4-1.5,1.5-1.5,2.8v0.3c-1.7-1.5-2.8-3.6-2.8-6.1c0-4.4,3.6-7.9,7.9-7.9    s7.9,3.6,7.9,7.9C30.9,40.7,29.8,42.9,28,44.3z"/></g></g></svg>